<svg xmlns="http://www.w3.org/2000/svg" width="138.813" height="21.906" viewBox="0 0 138.813 21.906">
  <metadata><?xpacket begin="﻿" id="W5M0MpCehiHzreSzNTczkc9d"?>
<x:xmpmeta xmlns:x="adobe:ns:meta/" x:xmptk="Adobe XMP Core 5.6-c138 79.159824, 2016/09/14-01:09:01        ">
   <rdf:RDF xmlns:rdf="http://www.w3.org/1999/02/22-rdf-syntax-ns#">
      <rdf:Description rdf:about=""/>
   </rdf:RDF>
</x:xmpmeta>
                                                                                                    
                                                                                                    
                                                                                                    
                                                                                                    
                                                                                                    
                                                                                                    
                                                                                                    
                                                                                                    
                                                                                                    
                                                                                                    
                                                                                                    
                                                                                                    
                                                                                                    
                                                                                                    
                                                                                                    
                                                                                                    
                                                                                                    
                                                                                                    
                                                                                                    
                                                                                                    
                           
<?xpacket end="w"?></metadata>
<defs>
    <style>
      .cls-1 {
        fill: #fff;
        fill-rule: evenodd;
      }
    </style>
  </defs>
  <path id="HOMEFOR" class="cls-1" d="M296.639,36.185h-4.394v8.643h-8.57V36.185h-4.394V57.513h4.394V48.373h8.57v9.141h4.394V36.185ZM318,46.381a12.769,12.769,0,0,0-1.136-5.53,8.447,8.447,0,0,0-3.208-3.677,9.4,9.4,0,0,0-9.477,0,8.454,8.454,0,0,0-3.208,3.677,12.805,12.805,0,0,0-1.135,5.544V47.45a12.492,12.492,0,0,0,1.157,5.442,8.468,8.468,0,0,0,3.223,3.64,9.411,9.411,0,0,0,9.484-.015,8.38,8.38,0,0,0,3.186-3.662A12.864,12.864,0,0,0,318,47.333V46.381Zm-4.453,1.025a9.035,9.035,0,0,1-1.2,5.061,4.206,4.206,0,0,1-6.855-.066,9.086,9.086,0,0,1-1.2-5.068v-1.04a8.864,8.864,0,0,1,1.216-5.046,4.242,4.242,0,0,1,6.84.022,8.973,8.973,0,0,1,1.2,5.1v1.04Zm7.646-11.221V57.513h4.395v-5.83l-0.44-10.049,5.742,15.879h3.018l5.757-15.894-0.44,10.064v5.83h4.41V36.185H337.86l-5.449,15.469-5.479-15.469H321.19ZM360.3,44.828h-8.437V39.745h9.873v-3.56H347.469V57.513h14.3v-3.53h-9.9V48.27H360.3V44.828Zm16.875,0.425h-8.437V39.745h9.492v-3.56H364.344V57.513h4.395V48.8h8.437V45.252ZM398.3,46.381a12.769,12.769,0,0,0-1.135-5.53,8.454,8.454,0,0,0-3.208-3.677,9.4,9.4,0,0,0-9.477,0,8.447,8.447,0,0,0-3.208,3.677,12.805,12.805,0,0,0-1.136,5.544V47.45a12.506,12.506,0,0,0,1.158,5.442,8.465,8.465,0,0,0,3.222,3.64A9.413,9.413,0,0,0,394,56.517a8.38,8.38,0,0,0,3.186-3.662,12.878,12.878,0,0,0,1.113-5.522V46.381Zm-4.453,1.025a9.027,9.027,0,0,1-1.2,5.061,4.206,4.206,0,0,1-6.855-.066,9.086,9.086,0,0,1-1.2-5.068v-1.04a8.873,8.873,0,0,1,1.215-5.046,4.243,4.243,0,0,1,6.841.022,8.974,8.974,0,0,1,1.2,5.1v1.04Zm19.541,10.107H418.1V57.308l-4.614-8.716a6.446,6.446,0,0,0,2.864-2.322,6.56,6.56,0,0,0,.945-3.64,5.815,5.815,0,0,0-2.051-4.761,8.962,8.962,0,0,0-5.83-1.685h-7.925V57.513h4.394V49.706h3.5Zm-7.5-17.769h3.531a3.562,3.562,0,0,1,2.629.864,3.224,3.224,0,0,1,.857,2.373A3.012,3.012,0,0,1,412,45.3a3.631,3.631,0,0,1-2.564.842h-3.545v-6.4Z" transform="translate(-279.281 -35.906)"/>
</svg>
